{
  "accessors": [
    {
      "bufferView": 2,
      "componentType": 5126,
      "count": 975,
      "max": [
        19.109981536865234,
        16.175514221191406,
        37.147220611572266
      ],
      "min": [
        -18.631580352783203,
        -11.911348342895508,
        -18.8869571685791
      ],
      "type": "VEC3"
    },
    {
      "bufferView": 2,
      "byteOffset": 11700,
      "componentType": 5126,
      "count": 975,
      "max": [
        0.9996339678764343,
        0.9998157024383545,
        0.998623251914978
      ],
      "min": [
        -0.999962568283081,
        -0.9998340010643005,
        -0.9998544454574585
      ],
      "type": "VEC3"
    },
    {
      "bufferView": 3,
      "componentType": 5126,
      "count": 975,
      "max": [
        1.0,
        0.993478536605835,
        0.9915004372596741,
        1.0
      ],
      "min": [
        -0.9982022643089294,
        -0.9998216032981873,
        -0.9988851547241211,
        -1.0
      ],
      "type": "VEC4"
    },
    {
      "bufferView": 1,
      "componentType": 5126,
      "count": 975,
      "max": [
        0.985698938369751,
        0.6917799711227417
      ],
      "min": [
        0.017319025471806526,
        0.009776115417480469
      ],
      "type": "VEC2"
    },
    {
      "bufferView": 0,
      "componentType": 5125,
      "count": 3810,
      "type": "SCALAR"
    },
    {
      "bufferView": 2,
      "byteOffset": 23400,
      "componentType": 5126,
      "count": 975,
      "max": [
        19.109981536865234,
        16.175514221191406,
        37.147220611572266
      ],
      "min": [
        -18.631580352783203,
        -11.911348342895508,
        -18.8869571685791
      ],
      "type": "VEC3"
    },
    {
      "bufferView": 2,
      "byteOffset": 35100,
      "componentType": 5126,
      "count": 975,
      "max": [
        0.9996339678764343,
        0.9998157024383545,
        0.998623251914978
      ],
      "min": [
        -0.999962568283081,
        -0.9998340010643005,
        -0.9998544454574585
      ],
      "type": "VEC3"
    },
    {
      "bufferView": 3,
      "byteOffset": 15600,
      "componentType": 5126,
      "count": 975,
      "max": [
        1.0,
        0.993478536605835,
        0.9915004372596741,
        1.0
      ],
      "min": [
        -0.9982022643089294,
        -0.9998216032981873,
        -0.9988851547241211,
        -1.0
      ],
      "type": "VEC4"
    },
    {
      "bufferView": 1,
      "byteOffset": 7800,
      "componentType": 5126,
      "count": 975,
      "max": [
        0.985698938369751,
        0.6917799711227417
      ],
      "min": [
        0.017319025471806526,
        0.009776115417480469
      ],
      "type": "VEC2"
    },
    {
      "bufferView": 0,
      "byteOffset": 15240,
      "componentType": 5125,
      "count": 3810,
      "type": "SCALAR"
    }
  ],
  "asset": {
    "extras": {
      "author": "Mehdi Shahsavan (https://sketchfab.com/ahmagh2e)",
      "license": "CC-BY-4.0 (http://creativecommons.org/licenses/by/4.0/)",
      "source": "https://sketchfab.com/3d-models/cap-5-mb-0a1238d1cdbe4dc59bae48b4ff8cac30",
      "title": "Cap_5_MB"
    },
    "generator": "Sketchfab-16.53.0",
    "version": "2.0"
  },
  "bufferViews": [
    {
      "buffer": 0,
      "byteLength": 30480,
      "name": "floatBufferViews",
      "target": 34963
    },
    {
      "buffer": 0,
      "byteLength": 15600,
      "byteOffset": 30480,
      "byteStride": 8,
      "name": "floatBufferViews",
      "target": 34962
    },
    {
      "buffer": 0,
      "byteLength": 46800,
      "byteOffset": 46080,
      "byteStride": 12,
      "name": "floatBufferViews",
      "target": 34962
    },
    {
      "buffer": 0,
      "byteLength": 31200,
      "byteOffset": 92880,
      "byteStride": 16,
      "name": "floatBufferViews",
      "target": 34962
    }
  ],
  "buffers": [
    {
      "byteLength": 124080,
      "uri": "scene.bin"
    }
  ],
  "images": [
    {
      "uri": "textures/Scene_-_Root_baseColor.png"
    },
    {
      "uri": "textures/Scene_-_Root_metallicRoughness.png"
    },
    {
      "uri": "textures/Scene_-_Root_normal.png"
    }
  ],
  "materials": [
    {
      "doubleSided": true,
      "name": "Scene_-_Root",
      "normalTexture": {
        "index": 2
      },
      "pbrMetallicRoughness": {
        "baseColorTexture": {
          "index": 0
        },
        "metallicRoughnessTexture": {
          "index": 1
        }
      }
    }
  ],
  "meshes": [
    {
      "name": "Cap__0",
      "primitives": [
        {
          "attributes": {
            "NORMAL": 1,
            "POSITION": 0,
            "TANGENT": 2,
            "TEXCOORD_0": 3
          },
          "indices": 4,
          "material": 0,
          "mode": 4
        }
      ]
    },
    {
      "name": "Cap_2__0",
      "primitives": [
        {
          "attributes": {
            "NORMAL": 6,
            "POSITION": 5,
            "TANGENT": 7,
            "TEXCOORD_0": 8
          },
          "indices": 9,
          "material": 0,
          "mode": 4
        }
      ]
    }
  ],
  "nodes": [
    {
      "children": [
        1
      ],
      "matrix": [
        1.0,
        0.0,
        0.0,
        0.0,
        0.0,
        2.220446049250313e-16,
        -1.0,
        0.0,
        0.0,
        1.0,
        2.220446049250313e-16,
        0.0,
        0.0,
        0.0,
        0.0,
        1.0
      ],
      "name": "Sketchfab_model"
    },
    {
      "children": [
        2
      ],
      "matrix": [
        1.0,
        0.0,
        0.0,
        0.0,
        0.0,
        0.0,
        1.0,
        0.0,
        0.0,
        -1.0,
        0.0,
        0.0,
        0.0,
        0.0,
        0.0,
        1.0
      ],
      "name": "ba0b115d92f2495d9e4fda5546c4e0ef.fbx"
    },
    {
      "children": [
        3,
        5,
        7
      ],
      "name": "RootNode"
    },
    {
      "children": [
        4
      ],
      "matrix": [
        0.005417001906185992,
        -0.44450626782892483,
        -0.8957593616318774,
        0.0,
        0.0026880514735840855,
        0.895775740830706,
        -0.44449814006188504,
        0.0,
        0.9999817150676426,
        8.326672684688674e-17,
        0.006047274623850019,
        0.0,
        39.66726303100586,
        111.24979400634766,
        209.325439453125,
        1.0
      ],
      "name": "CINEMA_4D_Editor"
    },
    {
      "name": "Object_4"
    },
    {
      "children": [
        6
      ],
      "matrix": [
        -1.0,
        1.2246467991473535e-16,
        -1.224646799147353e-16,
        0.0,
        1.2246467991473535e-16,
        1.0,
        -1.2246467991473535e-16,
        0.0,
        1.224646799147353e-16,
        -1.2246467991473535e-16,
        -1.0,
        0.0,
        66.71692657470703,
        0.0,
        -8.309902491124223e-16,
        1.0
      ],
      "name": "Cap"
    },
    {
      "mesh": 0,
      "name": "Cap__0"
    },
    {
      "children": [
        8
      ],
      "name": "Cap_2"
    },
    {
      "mesh": 1,
      "name": "Cap_2__0"
    }
  ],
  "samplers": [
    {
      "magFilter": 9729,
      "minFilter": 9987,
      "wrapS": 10497,
      "wrapT": 10497
    }
  ],
  "scene": 0,
  "scenes": [
    {
      "name": "Sketchfab_Scene",
      "nodes": [
        0
      ]
    }
  ],
  "textures": [
    {
      "sampler": 0,
      "source": 0
    },
    {
      "sampler": 0,
      "source": 1
    },
    {
      "sampler": 0,
      "source": 2
    }
  ]
}
